<?xml version="1.0" encoding="utf-8"?>
<!-- Generator: Adobe Illustrator 26.5.0, SVG Export Plug-In . SVG Version: 6.00 Build 0)  -->
<svg version="1.1" id="Layer_1" xmlns="http://www.w3.org/2000/svg" xmlns:xlink="http://www.w3.org/1999/xlink" x="0px" y="0px"
	 viewBox="0 0 506.8 478" style="enable-background:new 0 0 506.8 478;" xml:space="preserve">
<g>
	<path d="M299.6,242.8v33.6h123.2v-44.8h-112C304.6,231.6,299.6,236.6,299.6,242.8L299.6,242.8z"/>
	<path d="M210,310v33.6h212.8v-44.8H221.2C215,298.8,210,303.9,210,310L210,310z"/>
	<path d="M495.6,86h-56V74.8c0-6.2-5-11.2-11.2-11.2h-67.2c-6.2,0-11.2,5-11.2,11.2v134.4h22.4v-56h44.8v11.2
		c0,6.2,5,11.2,11.2,11.2h67.2c6.2,0,11.2-5,11.2-11.2V97.2C506.8,91,501.8,86,495.6,86L495.6,86z"/>
	<path d="M120.4,377.2v33.6h302.4V366H131.6C125.4,366,120.4,371.1,120.4,377.2L120.4,377.2z"/>
	<path d="M30.8,444.4V478h392v-44.8H42C35.9,433.2,30.8,438.3,30.8,444.4L30.8,444.4z"/>
	<path d="M154.8,77.5c2.8,0.6,5.6,0.9,8.4,0.9c18,0,34.3-12.5,38.3-30.9c4.6-21.1-8.8-42.1-29.9-46.6c-21.1-4.6-42.1,8.8-46.6,29.9
		c-2.2,10.2-0.3,20.7,5.3,29.5C135.9,69.2,144.7,75.3,154.8,77.5L154.8,77.5z"/>
	<path d="M79.7,254.3l18.1-47.7l64.5,37.7l-19.8,64.3c-1.8,5.9,1.5,12.2,7.4,14c1.1,0.3,2.2,0.5,3.3,0.5c4.8,0,9.2-3.1,10.7-7.9
		l22.4-72.8c1.5-5-0.6-10.4-5-12.9l-15.4-9l21.2-89.1l11.9,28.1c1.7,4.1,5.8,6.8,10.3,6.8h44.8c6.2,0,11.2-5,11.2-11.2
		c0-6.2-5-11.2-11.2-11.2h-37.4l-22.3-52.8c-0.1-0.2-0.2-0.3-0.2-0.4c-0.3-0.6-0.6-1.1-0.9-1.6c-0.2-0.2-0.3-0.4-0.5-0.7
		c-0.3-0.4-0.7-0.8-1.1-1.2c-0.2-0.2-0.4-0.4-0.6-0.6c-0.5-0.4-1.1-0.7-1.6-1.1c-0.2-0.1-0.3-0.2-0.4-0.3c-0.7-0.3-1.5-0.6-2.2-0.8
		h-0.1c-0.1,0-0.1,0-0.1-0.1l-65.6-14.3c-0.2-0.1-0.3,0-0.5-0.1c-0.6-0.1-1.3-0.2-1.9-0.2h-0.3l-43.6,1.2c-2.9,0.1-5.6,1.2-7.6,3.2
		l-33.6,33.6c-4.4,4.4-4.4,11.5,0,15.8c4.4,4.4,11.5,4.4,15.8,0l30.4-30.4l24.5-0.7L81.4,187l-20.3,53.4l-51.8,9
		c-6.1,1.1-10.2,6.8-9.1,12.9c1,5.4,5.7,9.3,11,9.3c0.6,0,1.3-0.1,1.9-0.2l58.1-10.1C75.1,260.7,78.3,258,79.7,254.3L79.7,254.3z"/>
</g>
</svg>
