<?xml version="1.0" encoding="utf-8"?>
<!-- Generator: Adobe Illustrator 26.5.0, SVG Export Plug-In . SVG Version: 6.00 Build 0)  -->
<svg version="1.1" id="Layer_1" xmlns="http://www.w3.org/2000/svg" xmlns:xlink="http://www.w3.org/1999/xlink" x="0px" y="0px"
	 viewBox="0 0 510.1 364.9" style="enable-background:new 0 0 510.1 364.9;" xml:space="preserve">
<style type="text/css">
	.st0{fill:#000000;}
</style>
<g>
	<path class="st0" d="M118.9,364.9H0V0h118.9V364.9z M5.6,359.3h107.7V5.6H5.6V359.3z"/>
	<path class="st0" d="M103,200.6H16V59.2h87V200.6z M18.8,197.8h81.4l0-135.8H18.8L18.8,197.8z"/>
	<path class="st0" d="M103,178H16V59.2h87V178z M18.8,175.2h81.4l0-113.3H18.8L18.8,175.2z"/>
	<path class="st0" d="M92.5,98.1h-66V88h66V98.1z M28.1,96.4h62.7v-6.7H28.1V96.4z"/>
	<path class="st0" d="M92.5,114h-66v-10.1h66V114z M28.1,112.3h62.7v-6.7l-62.7,0V112.3z"/>
	<path class="st0" d="M92.5,130h-66v-10.1h66V130z M28.1,128.3h62.7v-6.7l-62.7,0V128.3z"/>
	<path class="st0" d="M92.5,145.9h-66v-10.1h66V145.9z M28.1,144.3h62.7v-6.7H28.1V144.3z"/>
	<path class="st0" d="M59.5,323.3c-12.3,0-22.3-10-22.3-22.3s10-22.3,22.3-22.3s22.3,10,22.3,22.3C81.8,313.3,71.8,323.3,59.5,323.3
		L59.5,323.3z M59.5,281.5c-10.8,0-19.5,8.7-19.5,19.5c0,10.8,8.7,19.5,19.5,19.5c10.8,0,19.5-8.7,19.5-19.5
		C79,290.2,70.2,281.5,59.5,281.5z"/>
	<path class="st0" d="M249.3,364.9H130.4V0h118.9V364.9z M136,359.3h107.7V5.6H136V359.3z"/>
	<path class="st0" d="M233.3,200.6h-87V59.2h87V200.6z M149.2,197.8h81.4V62h-81.4V197.8z"/>
	<path class="st0" d="M233.3,178h-87V59.2h87V178z M149.2,175.2h81.4V62h-81.4V175.2z"/>
	<path class="st0" d="M222.9,98.1h-66V88h66V98.1z M158.5,96.4h62.7v-6.7h-62.7L158.5,96.4z"/>
	<path class="st0" d="M222.9,114h-66v-10.1h66V114z M158.5,112.3h62.7v-6.7l-62.7,0L158.5,112.3z"/>
	<path class="st0" d="M222.9,130h-66v-10.1h66V130z M158.5,128.3h62.7v-6.7l-62.7,0L158.5,128.3z"/>
	<path class="st0" d="M222.9,145.9h-66v-10.1h66V145.9z M158.5,144.3h62.7v-6.7h-62.7L158.5,144.3z"/>
	<path class="st0" d="M189.9,323.3c-12.3,0-22.3-10-22.3-22.3s10-22.3,22.3-22.3s22.3,10,22.3,22.3
		C212.1,313.3,202.1,323.3,189.9,323.3z M189.9,281.5c-10.8,0-19.5,8.7-19.5,19.5c0,10.8,8.7,19.5,19.5,19.5
		c10.8,0,19.5-8.7,19.5-19.5C209.4,290.2,200.6,281.5,189.9,281.5z"/>
	<path class="st0" d="M379.7,364.9H260.8V0h118.9V364.9z M266.4,359.3h107.7l0-353.7H266.4L266.4,359.3z"/>
	<path class="st0" d="M363.7,200.6h-87V59.2h87V200.6z M279.5,197.8h81.4l0-135.8h-81.4L279.5,197.8z"/>
	<path class="st0" d="M363.7,178h-87V59.2h87V178z M279.5,175.2h81.4l0-113.3h-81.4L279.5,175.2z"/>
	<path class="st0" d="M353.3,98.1h-66.1V88h66.1L353.3,98.1z M288.9,96.4h62.7v-6.7h-62.7V96.4z"/>
	<path class="st0" d="M353.3,114h-66.1v-10.1h66.1L353.3,114z M288.9,112.3h62.7v-6.7l-62.7,0V112.3z"/>
	<path class="st0" d="M353.3,130h-66.1v-10.1h66.1L353.3,130z M288.9,128.3h62.7v-6.7l-62.7,0V128.3z"/>
	<path class="st0" d="M353.3,145.9h-66.1v-10.1h66.1L353.3,145.9z M288.9,144.3h62.7v-6.7h-62.7V144.3z"/>
	<path class="st0" d="M320.2,323.3c-12.3,0-22.3-10-22.3-22.3s10-22.3,22.3-22.3s22.3,10,22.3,22.3
		C342.5,313.3,332.5,323.3,320.2,323.3z M320.2,281.5c-10.8,0-19.5,8.7-19.5,19.5c0,10.8,8.7,19.5,19.5,19.5s19.5-8.7,19.5-19.5
		C339.7,290.2,331,281.5,320.2,281.5z"/>
	<path class="st0" d="M510.1,364.9H391.2V0h118.9V364.9L510.1,364.9z M396.8,359.3h107.7V5.6H396.8L396.8,359.3z"/>
	<path class="st0" d="M494.1,200.6h-87V59.2h87V200.6z M409.9,197.8h81.4l0-135.8h-81.4L409.9,197.8z"/>
	<path class="st0" d="M494.1,178h-87V59.2h87V178z M409.9,175.2h81.4l0-113.3h-81.4L409.9,175.2z"/>
	<path class="st0" d="M483.7,98.1h-66.1V88h66.1L483.7,98.1z M419.3,96.4H482v-6.7h-62.7V96.4z"/>
	<path class="st0" d="M483.7,114h-66.1v-10.1h66.1L483.7,114z M419.3,112.3H482v-6.7l-62.7,0V112.3z"/>
	<path class="st0" d="M483.7,130h-66.1v-10.1h66.1L483.7,130z M419.3,128.3H482v-6.7l-62.7,0V128.3z"/>
	<path class="st0" d="M483.7,145.9h-66.1v-10.1h66.1L483.7,145.9z M419.3,144.3H482v-6.7h-62.7V144.3z"/>
	<path class="st0" d="M450.6,323.3c-12.3,0-22.3-10-22.3-22.3s10-22.3,22.3-22.3s22.3,10,22.3,22.3
		C472.9,313.3,462.9,323.3,450.6,323.3z M450.6,281.5c-10.8,0-19.5,8.7-19.5,19.5c0,10.8,8.7,19.5,19.5,19.5s19.5-8.7,19.5-19.5
		C470.1,290.2,461.4,281.5,450.6,281.5z"/>
</g>
</svg>
