<?xml version="1.0" encoding="utf-8"?>
<!-- Generator: Adobe Illustrator 26.5.0, SVG Export Plug-In . SVG Version: 6.00 Build 0)  -->
<svg version="1.1" id="Layer_1" xmlns="http://www.w3.org/2000/svg" xmlns:xlink="http://www.w3.org/1999/xlink" x="0px" y="0px"
	 viewBox="0 0 591.1 560" style="enable-background:new 0 0 591.1 560;" xml:space="preserve">
<g>
	<path d="M165,180.4c0,0,26.2-13.5,130.9-14.6c108.5-1.2,130.9,14.6,130.9,14.6v-62.8l68.5-17.6v70.7l0,0c-4.4,2.9-7,7.9-7,13.1
		v87.9c0,4.2,1.7,8.2,4.6,11.2c3,3,7,4.6,11.2,4.6h3.5c4.2,0,8.2-1.7,11.2-4.6c3-3,4.6-7,4.6-11.2v-87.8c0-5.3-2.6-10.2-7-13.1V94.7
		l74.8-19.1L295.4,0L0,75.6l165,42L165,180.4z"/>
	<path d="M162.5,203.8c-5.8,38.7,5.5,78,31.1,107.7c25.5,29.7,62.7,46.7,101.9,46.7c39.1,0,76.3-17.1,101.9-46.7
		c25.5-29.6,36.9-69,31.1-107.7c-40.9-12.3-85.8-14.1-132.8-14.1C248.3,189.7,205.9,191.4,162.5,203.8L162.5,203.8z"/>
	<path d="M497.1,433.5c-65-52.7-138.2-52.7-138.2-52.7l-41,40.6v49h-43.9v-49l-41.5-40.6c0,0-73.4,0-138.4,52.7
		C28.1,486.9-0.2,560-0.2,560h591.3C591.1,560,563,486.9,497.1,433.5L497.1,433.5z"/>
</g>
</svg>
