<?xml version="1.0" encoding="utf-8"?>
<!-- Generator: Adobe Illustrator 26.5.0, SVG Export Plug-In . SVG Version: 6.00 Build 0)  -->
<svg version="1.1" id="Layer_1" xmlns="http://www.w3.org/2000/svg" xmlns:xlink="http://www.w3.org/1999/xlink" x="0px" y="0px"
	 viewBox="0 0 384.7 471.4" style="enable-background:new 0 0 384.7 471.4;" xml:space="preserve">
<g>
	<path d="M337.7,299c14-18.9,37.6-65.8,44.1-106.6c6.5-41.3-6.4-96-30.2-127.2C323,27.6,274,2.9,223.7,0.5
		c-57.3-2.7-97,5.2-128.6,25.3C54,52.1,41.1,92.2,37.2,113.8c-0.5,2.8-0.9,5.3-1.3,7.6c-0.8,4.6-1.4,8.3-2.2,11.2
		c-3.3,11.4-6.5,22.1,0.8,38.8c2.2,5,2.9,12.1-8,26.8l-3.3,4.4c-15.5,20.6-24.7,34-22.8,47.4c2.2,16.5,17,22.1,23.8,24.3
		c-0.2,0.5-0.5,1.1-0.8,1.7l-0.6,1.2c-2,4.2-7.6,16,0.2,27.7c-0.9,3-0.9,5.7-0.9,7.8l0,0.3c-0.1,7.8,4.1,12.9,6.6,15.9
		c0.5,0.6,1.1,1.3,1.4,1.7c0,0.2-0.1,0.5-0.2,1c-2.5,10.1-5.3,29,3.3,42.3c4.1,6.4,10.6,10.7,18.1,12.1c18.8,3.5,32.8,2.1,44,1
		l0.2,0c5.1-0.5,9.9-1,14.5-0.9c4.6,0.1,8.1,2.8,8.5,3.9c3.1,9.6,6.1,26.2,4.3,41.7c-1.1,9.7-2.4,12.6-5.8,19.4l-4.6,6.2
		c-2.9,3.9-2.1,9.4,1.8,12.2c1.6,1.2,3.4,1.7,5.2,1.7c2.7,0,5.3-1.2,7-3.5l5.5-7.4l0.3-0.7c4-8,6.4-12.8,7.9-26
		c2.1-18.2-1.4-37.8-5-49.1c-2.9-8.9-13.6-15.8-24.9-15.9c-5.6-0.1-10.9,0.4-16.5,1l-0.2,0c-11.2,1.1-22.7,2.2-39.1-0.8
		c-2.8-0.5-5-2-6.5-4.4c-4.3-6.6-3.3-19.1-1-28.7c2.3-9.6-1.8-14.5-4.8-18.1c-1.7-2.1-2.6-3.2-2.5-4.3c0-0.4,0-0.8,0-1.3l0-0.1
		c-0.1-2,0.2-2.6,0.7-3.2l4.5-6.1l-5.4-5.3c-3.9-3.8-3.4-7-0.7-12.7l0.6-1.3c4-8.9,4.9-14.9,2.8-19l-1.1-2.1l-2-1.3
		c-1.2-0.7-2.3-1.1-4.5-1.7c-0.3-0.1-1.1-0.3-1.5-0.5c-0.6-0.2-1.4-0.5-2.2-0.8l-0.2-0.1c-7.4-2.4-12.1-5-12.8-10.4
		c-1-7.3,10.3-22.4,19.5-34.6l3.3-4.5c7.9-10.7,17.6-26.9,10-44.3c-4.8-10.9-3.2-16.2,0-26.9c1.1-3.9,1.9-8.2,2.7-13.2
		c0.4-2.3,0.8-4.7,1.3-7.4c3.5-18.8,14.6-53.7,50.1-76.4c28.4-18.1,64.9-25.1,118.4-22.6c45.3,2.1,89.3,24.3,114.8,57.8
		c21.2,27.9,32.7,76.9,26.8,113.9c-6,37.9-27.9,81.4-40.8,98.9c-14.5,19.5-21.2,33.8-21.8,46.4c-1.9,36.6,6.1,71.7,28.3,124.9
		l0.3,0.7l4.3,6.8c2.6,4.1,8,5.2,12.1,2.6c4.1-2.6,5.2-8,2.6-12.1l-3.5-5.5c-20.9-50.2-28.4-82.9-26.7-116.6
		C319.7,327,325.5,315.3,337.7,299L337.7,299z"/>
	<path d="M209.8,47c-66.3,0-120.3,54-120.3,120.3s54,120.3,120.3,120.3c66.3,0,120.3-54,120.3-120.3S276.1,47,209.8,47z
		 M209.8,270.2C153.1,270.2,107,224,107,167.3S153.1,64.5,209.8,64.5c56.7,0,102.8,46.1,102.8,102.8S266.5,270.2,209.8,270.2z"/>
	<path d="M248.9,126.9c-13.4,0-24.3,10.9-24.3,24.3s10.9,24.3,24.3,24.3s24.3-10.9,24.3-24.3S262.3,126.9,248.9,126.9z M248.9,157.9
		c-3.7,0-6.8-3-6.8-6.8s3-6.8,6.8-6.8s6.8,3,6.8,6.8S252.6,157.9,248.9,157.9z"/>
	<path d="M194.9,151.1c0-13.4-10.9-24.3-24.3-24.3s-24.3,10.9-24.3,24.3s10.9,24.3,24.3,24.3S194.9,164.5,194.9,151.1z M163.9,151.1
		c0-3.7,3-6.8,6.8-6.8c3.7,0,6.8,3,6.8,6.8s-3,6.8-6.8,6.8C167,157.9,163.9,154.9,163.9,151.1z"/>
	<path d="M249.5,196.2c-21.9,21.9-57.6,21.9-79.5,0c-3.4-3.4-9-3.4-12.4,0s-3.4,9,0,12.4c14.4,14.4,33.2,21.6,52.1,21.6
		s37.8-7.2,52.1-21.6c3.4-3.4,3.4-9,0-12.4S253,192.7,249.5,196.2L249.5,196.2z"/>
</g>
</svg>
