<svg width="20" height="20" viewBox="0 0 20 20" fill="none" xmlns="http://www.w3.org/2000/svg">
    <path d="M17.997 14.152c-.755-.811-2.167-2.03-2.167-6.027 0-3.035-2.128-5.465-4.998-6.06V1.25a1.25 1.25 0 1 0-2.498 0v.814c-2.87.596-4.998 3.026-4.998 6.061 0 3.996-1.412 5.216-2.166 6.027A1.22 1.22 0 0 0 .833 15c.005.64.507 1.25 1.254 1.25H17.08c.747 0 1.25-.61 1.254-1.25a1.22 1.22 0 0 0-.336-.848zm-14.526.223c.83-1.093 1.735-2.903 1.74-6.227 0-.008-.003-.015-.003-.023a4.375 4.375 0 1 1 8.75 0l-.002.023c.004 3.324.91 5.135 1.74 6.227H3.47zM9.583 20a2.5 2.5 0 0 0 2.5-2.5H7.083a2.5 2.5 0 0 0 2.5 2.5z" fill="#fff"/>
</svg>
