<svg width="20" height="20" viewBox="0 0 20 20" fill="none" xmlns="http://www.w3.org/2000/svg">
    <g clip-path="url(#6siimzhu8a)">
        <path d="m19.305 8.668-2.336-1.582.535-2.774a1.578 1.578 0 0 0-1.848-1.855l-2.77.535L11.31.652c-.59-.87-2.028-.87-2.618 0l-1.578 2.34-2.765-.535a1.575 1.575 0 0 0-1.418.438 1.579 1.579 0 0 0-.434 1.417l.535 2.774L.695 8.668A1.58 1.58 0 0 0 0 9.98c0 .528.262 1.016.695 1.31l2.336 1.581-.535 2.774a1.575 1.575 0 0 0 .434 1.418c.37.37.894.535 1.418.433l2.765-.535 1.578 2.34a1.577 1.577 0 0 0 2.618.004l1.578-2.34 2.77.535a1.559 1.559 0 0 0 1.417-.434c.371-.37.531-.902.434-1.417l-.535-2.774 2.336-1.582a1.583 1.583 0 0 0-.004-2.625zm-4.41 3.344.687 3.562-3.555-.687L10 17.89l-2.027-3.008-3.551.687.687-3.562-3-2.031 3-2.032-.687-3.562 3.555.687 2.023-3 2.027 3.004 3.555-.687-.688 3.558 3 2.032-3 2.035zM10 5.938A4.07 4.07 0 0 0 5.937 10 4.07 4.07 0 0 0 10 14.063 4.07 4.07 0 0 0 14.063 10 4.07 4.07 0 0 0 10 5.938zm0 6.25A2.189 2.189 0 0 1 7.812 10a2.189 2.189 0 0 1 4.375 0c0 1.207-.98 2.188-2.187 2.188z" fill="#fff"/>
    </g>
    <defs>
        <clipPath id="6siimzhu8a">
            <path fill="#fff" d="M0 0h20v20H0z"/>
        </clipPath>
    </defs>
</svg>
