<?xml version="1.0" encoding="utf-8"?>
<!-- Generator: Adobe Illustrator 26.5.0, SVG Export Plug-In . SVG Version: 6.00 Build 0)  -->
<svg version="1.1" id="Layer_1" xmlns="http://www.w3.org/2000/svg" xmlns:xlink="http://www.w3.org/1999/xlink" x="0px" y="0px"
	 viewBox="0 0 560 546.9" style="enable-background:new 0 0 560 546.9;" xml:space="preserve">
<g>
	<path d="M507.5,394V83.1c0-4.8-3.9-8.8-8.8-8.8h-58.6L337.4,5.8c-1.4-1-3.1-1.5-4.9-1.5h-175c-4.8,0-8.8,3.9-8.8,8.8
		c0,21,8.2,40.7,23.1,55.7c2.5,2.4,5.1,4.6,7.8,6.7c-2.7,1.5-4.6,4.3-4.6,7.6v35c0,4.8,3.9,8.8,8.8,8.8h17.5v12.5
		c-19.6,4.2-37.9,12-54.3,22.5H61.2c-24.1,0-43.8,19.6-43.8,43.8c0,11.2,4.3,21.3,11.3,29.1C12,240.8,0,256.8,0,275.6
		c0,18.2,11.1,33.8,26.9,40.4c-5.8,6.9-9.4,15.6-9.4,25.3c0,21.7,17.7,39.4,39.4,39.4h2.3c-4.2,6.3-6.7,13.8-6.7,21.9
		c0,21.7,17.7,39.4,39.4,39.4h54.9c26.7,17.1,57.5,26.2,89.4,26.2c18.5,0,36.2-3.2,52.8-8.8H403c-0.3,2.9-0.5,5.8-0.5,8.8
		c0,43.4,35.3,78.7,78.8,78.7c43.4,0,78.8-35.3,78.8-78.7C560,433.9,538,404.8,507.5,394L507.5,394z M192.5,91.9H280v17.5h-87.5
		V91.9z M271.3,139.4v-12.5h17.5c4.8,0,8.8-3.9,8.8-8.8V95.5L350,148v13.9h-24.4C309.2,151.4,290.9,143.6,271.3,139.4z M218.8,126.9
		h35v9.7c-5.8-0.6-11.6-0.9-17.5-0.9s-11.7,0.3-17.5,0.9V126.9z M78.6,249.5c-0.8-1-1.5-2-2.4-2.9c1.4-0.5,2.8-1.1,4.1-1.7
		C79.7,246.4,79.1,247.9,78.6,249.5L78.6,249.5z M104.5,200.9c-0.9-8-3.9-15.4-8.5-21.5h28.2C117.1,186,110.5,193.1,104.5,200.9
		L104.5,200.9z M61.3,179.4c14.5,0,26.2,11.8,26.2,26.2s-11.8,26.2-26.2,26.2S35,220.1,35,205.6S46.8,179.4,61.3,179.4z M17.5,275.6
		c0-14.5,11.8-26.3,26.2-26.3S70,261.2,70,275.6s-11.8,26.2-26.2,26.2S17.5,290.1,17.5,275.6z M35,341.3c0-12.1,9.8-21.9,21.9-21.9
		h61.2c12.1,0,21.9,9.8,21.9,21.9s-9.8,21.9-21.9,21.9H56.9C44.8,363.1,35,353.3,35,341.3z M133.8,252.8l7.2,4.1l8.8-15.1l-7.2-4.2
		c4.2-6.1,9-11.8,14.2-16.9l5.3,6.4l13.4-11.2l-5.3-6.3c6-4.3,12.4-8,19.1-11.1l2.8,7.8l16.4-6l-2.8-7.8c7-2,14.3-3.3,21.8-3.8v8.3
		H245v-8.3c7.5,0.6,14.8,1.9,21.8,3.8l-2.8,7.8l16.4,6l2.8-7.8c6.8,3.1,13.2,6.8,19.1,11.1l-5.3,6.3l13.4,11.2l5.3-6.4
		c5.3,5.2,10,10.8,14.2,16.9l-7.2,4.2l8.8,15.1l7.2-4.1c3.2,6.6,5.7,13.5,7.6,20.8l-8.2,1.4l3,17.2l8.3-1.5
		c0.3,3.6,0.6,7.3,0.6,11.1s-0.2,7.4-0.6,11.1l-8.3-1.5l-3,17.2l8.2,1.4c-1.9,7.2-4.4,14.2-7.6,20.8l-7.2-4.1l-8.8,15.1l7.2,4.2
		c-4.2,6.1-9,11.8-14.2,16.9l-5.3-6.4L297,387.9l5.3,6.3c-6,4.3-12.4,8-19.1,11.1l-2.8-7.8l-16.4,6l2.8,7.8c-7,2-14.3,3.3-21.8,3.8
		v-8.3h-17.5v8.4c-7.4-0.6-14.7-1.9-21.8-3.8l2.9-7.9l-16.4-6l-0.1,0.2c-2.4-19.5-18.8-34.7-38.9-34.7h-2.3
		c4.2-6.3,6.7-13.8,6.7-21.9c0-20.2-15.4-36.7-35-38.9c0-0.1,0-0.3,0-0.4c0-3.7,0.2-7.4,0.6-11.1l8.3,1.5l3-17.2l-8.2-1.4
		C128.1,266.4,130.6,259.4,133.8,252.8L133.8,252.8z M70,402.5c0-12.1,9.8-21.9,21.9-21.9h61.2c12.1,0,21.9,9.8,21.9,21.9
		s-9.8,21.9-21.9,21.9H91.9C79.8,424.4,70,414.6,70,402.5z M172.8,436.4c5.5-3.2,10.2-7.7,13.6-13.1c1.6,0.6,3.1,1.3,4.9,2
		c14.5,5.2,29.6,7.9,44.9,7.9c72.4,0,131.2-58.9,131.2-131.2s-58.9-131.3-131.2-131.3S105,229.5,105,301.9H87.5
		c0-82,66.7-148.8,148.8-148.8S385,219.9,385,301.9s-66.7,148.8-148.8,148.8C214.1,450.6,192.5,445.7,172.8,436.4L172.8,436.4z
		 M325.6,441.9c46.2-29.6,76.9-81.2,76.9-140c0-48.5-21-92.1-54.2-122.5h10.5c4.8,0,8.8-3.9,8.8-8.8v-26.2c0-2.3-0.9-4.6-2.6-6.2
		l-61.2-61.2c-1.6-1.6-3.9-2.6-6.2-2.6h-70c-16.3,0-31.7-6.4-43.3-17.9c-9.5-9.5-15.5-21.6-17.3-34.6h163l102.8,68.5
		c1.4,1,3.1,1.5,4.9,1.5H490v298c-2.9-0.3-5.8-0.5-8.8-0.5c-34.2,0-63.3,22-74.2,52.5L325.6,441.9z M481.3,529.4
		c-33.8,0-61.2-27.5-61.2-61.2s27.5-61.2,61.2-61.2s61.3,27.5,61.3,61.2S515,529.4,481.3,529.4z"/>
	<path d="M472.5,473.3l-11.3-11.3l-12.4,12.4l17.5,17.5c1.7,1.7,3.9,2.6,6.2,2.6s4.5-0.9,6.2-2.6l43.7-43.8l-12.4-12.4L472.5,473.3z
		"/>
	<path d="M236.3,319.4c9.7,0,17.5-7.8,17.5-17.5c0-1.6-0.3-3-0.6-4.5l50.6-50.6l-12.4-12.4L240.7,285c-1.4-0.4-2.9-0.6-4.5-0.6
		c-9.7,0-17.5,7.8-17.5,17.5S226.6,319.4,236.3,319.4L236.3,319.4z"/>
</g>
</svg>
