<?xml version="1.0" encoding="utf-8"?>
<!-- Generator: Adobe Illustrator 27.2.0, SVG Export Plug-In . SVG Version: 6.00 Build 0)  -->
<svg version="1.1" id="Layer_1" xmlns="http://www.w3.org/2000/svg" xmlns:xlink="http://www.w3.org/1999/xlink" x="0px" y="0px"
	 viewBox="0 0 1220.2 770.5" style="enable-background:new 0 0 1220.2 770.5;" xml:space="preserve">
<style type="text/css">
	.st0{fill:#4A69BD;}
</style>
<path class="st0" d="M1141.3,192.5c-3.7-1.3-7.7-1.7-11.7-1.7h-36.8V80c0-4.7-0.7-9.5-2.5-14c-5.8-14.8-19.8-23.7-34.7-23.7H946.6
	c-16.2,0.2-95,8-120.3,20.1L820,65c-19.4,6.8-38.1,15.4-56,25.6c-34.4,19.7-65.5,44.7-92.1,74.2c-10.5,11.8-20.3,24.2-29.3,37.1
	c-8.9,12.6-17.8,25.6-25.6,39.3c0,1.8-7.8,11.5-6.7,13.3l0,0c-16.1-28-34.3-54.7-54.6-79.8c-33.3-41.2-75.9-73.9-124.4-95.4
	c-12.2-5.2-24.5-11.1-37.1-15.2c-20.8-9.9-105.3-23.7-120.3-21.9H165.1c-3.9,0-7.9,0.5-11.7,1.7c-16.1,5.4-25.8,19.9-25.8,35.4
	v111.3H90.9c-3.9,0-7.9,0.5-11.7,1.7C63.1,198,53.3,212.5,53.3,228v296.4c0,4.7,0.7,9.5,2.5,14c5.8,14.8,19.8,23.7,34.7,23.7h1038.7
	c4.7,0,9.5-0.7,14-2.5c14.8-5.8,23.7-19.8,23.7-34.7v-297C1167.1,212.4,1157.4,197.9,1141.3,192.5z M274.1,116.6
	c78.5,0.6,153.6,31.7,209.7,86.5c21.5,21.9,39.7,46.9,53.8,74.2c-3.4-5.9-19.7-12.2-25.3-15.6l0,0c-8.3-4.7-16.9-9.1-25.6-13
	c-18.3-8.8-37.2-16.4-56.4-23c-68.4-23.3-140.1-35-212.3-34.9h-16v-74.2L274.1,116.6L274.1,116.6z M573.2,487.7H127.9V265h90.2
	c28.8-0.1,57.6,1.9,86.1,5.9c141.8,19.3,251.7,86.1,267.2,162.2l0,0c1.1,5.7,1.7,11.6,1.8,17.4V487.7z M694.6,257.5
	c49.4-78.2,131.3-129.9,223-141.1h100.9l0,0v74.2c-37.2-0.4-74.5,1.9-111.3,6.7c-79.2,9-155.3,35.8-222.7,78.3
	C687.9,269.4,691,263.1,694.6,257.5z M1092.8,487.7H647.5v-37.1c0.1-6.4,0.7-12.7,1.8-18.9c15.6-76.1,125.5-142.9,267.2-162.2l0,0
	c28.6-3.5,57.3-5,86.1-4.5h90.2V487.7L1092.8,487.7z"/>
<g>
	<g>
		<path class="st0" d="M118.3,726.2c-13.7,0-25.4-3-35.1-9s-17-14.4-22.2-25.1c-5.1-10.7-7.7-23.2-7.7-37.4s2.6-26.6,7.7-37.4
			c5.1-10.7,12.5-19.1,22.2-25.1s21.3-9,35.1-9c15.8,0,28.9,4,39.3,12s17.6,18.8,21.7,32.3l-20.2,5.4c-2.7-9.6-7.4-17.1-14.2-22.6
			s-15.7-8.2-26.5-8.2c-9.7,0-17.8,2.2-24.3,6.6c-6.5,4.4-11.4,10.5-14.6,18.4c-3.3,7.9-4.9,17.1-4.9,27.5
			c-0.1,10.5,1.5,19.7,4.8,27.5c3.3,7.9,8.2,14,14.7,18.4s14.6,6.6,24.3,6.6c10.9,0,19.7-2.7,26.5-8.2s11.6-13,14.2-22.5l20.2,5.4
			c-4.1,13.5-11.3,24.3-21.7,32.3S134.1,726.2,118.3,726.2z"/>
		<path class="st0" d="M244.9,726.2c-10.3,0-19.2-2.3-26.8-7c-7.6-4.6-13.4-11-17.5-19.2s-6.1-17.6-6.1-28.3s2.1-20.2,6.3-28.3
			c4.2-8.2,10.1-14.5,17.6-19.1c7.6-4.5,16.4-6.8,26.5-6.8c10.3,0,19.2,2.3,26.8,7c7.6,4.6,13.4,11,17.5,19.2
			c4.1,8.1,6.2,17.5,6.2,28.1c0,10.7-2.1,20.2-6.2,28.3c-4.2,8.2-10,14.5-17.6,19.2C264.1,723.8,255.2,726.2,244.9,726.2z
			 M244.9,707.4c9.8,0,17.2-3.3,22.1-10c4.9-6.6,7.3-15.2,7.3-25.7c0-10.7-2.5-19.3-7.4-25.8c-4.9-6.4-12.2-9.7-22-9.7
			c-6.7,0-12.2,1.5-16.5,4.5s-7.5,7.2-9.6,12.5s-3.1,11.5-3.1,18.4c0,10.8,2.5,19.4,7.4,25.9S235.3,707.4,244.9,707.4z"/>
		<path class="st0" d="M355.2,726.1c-7.1,0-13.1-1.1-17.9-3.4c-4.8-2.3-8.8-5.3-11.8-9s-5.3-7.8-6.9-12.1c-1.6-4.4-2.7-8.7-3.2-12.9
			c-0.6-4.2-0.9-7.9-0.9-11.1v-57.2h20.2V671c0,4,0.3,8.1,1,12.3s1.9,8.1,3.8,11.8c1.9,3.6,4.5,6.5,7.9,8.8
			c3.4,2.2,7.8,3.3,13.3,3.3c3.6,0,6.9-0.6,10.1-1.8s6-3.1,8.3-5.7c2.4-2.6,4.3-6,5.6-10.3c1.4-4.3,2-9.4,2-15.5l12.4,4.7
			c0,9.3-1.7,17.6-5.2,24.7c-3.5,7.1-8.5,12.7-15.1,16.7C372.4,724.1,364.5,726.1,355.2,726.1z M389.2,723.3v-29.7h-2.4v-73.2h20.1
			v102.9H389.2z"/>
		<path class="st0" d="M433.6,723.3V620.4h17.7v25l-2.5-3.2c1.3-3.3,2.9-6.3,5-9.1c2-2.8,4.4-5,7.1-6.8c2.6-1.9,5.5-3.4,8.7-4.4
			s6.5-1.7,9.9-1.9s6.6,0,9.7,0.5v18.7c-3.4-0.9-7.1-1.1-11.2-0.8c-4.1,0.4-7.9,1.7-11.3,3.9c-3.2,2.1-5.8,4.6-7.7,7.6
			c-1.9,3-3.2,6.3-4,10s-1.2,7.5-1.2,11.6v51.8L433.6,723.3L433.6,723.3z"/>
		<path class="st0" d="M546.6,726.1c-12.5,0-22.7-2.8-30.6-8.3c-7.9-5.5-12.7-13.3-14.5-23.3l20.4-3.1c1.3,5.3,4.2,9.5,8.8,12.6
			s10.3,4.6,17.2,4.6c6.2,0,11.1-1.3,14.6-3.8s5.3-6,5.3-10.5c0-2.6-0.6-4.7-1.9-6.3c-1.2-1.6-3.8-3.2-7.8-4.6
			c-3.9-1.5-9.9-3.3-18-5.4c-8.8-2.3-15.8-4.7-21-7.4c-5.2-2.6-8.9-5.7-11.1-9.2c-2.2-3.5-3.3-7.8-3.3-12.8c0-6.2,1.7-11.7,5-16.3
			c3.3-4.6,8-8.2,14-10.8c6-2.5,13-3.8,21.1-3.8c7.9,0,14.9,1.2,21.1,3.7c6.2,2.5,11.1,6,15,10.5c3.8,4.5,6.1,9.9,6.9,16l-20.4,3.7
			c-0.7-5-3-8.9-7-11.7c-3.9-2.9-9.1-4.4-15.3-4.7c-6-0.3-10.9,0.7-14.7,3c-3.7,2.3-5.6,5.4-5.6,9.3c0,2.3,0.7,4.2,2.1,5.8
			c1.4,1.6,4.2,3.1,8.3,4.6s10.2,3.2,18.3,5.2c8.6,2.2,15.5,4.7,20.6,7.4s8.7,5.9,10.9,9.6c2.2,3.7,3.3,8.2,3.3,13.5
			c0,10.2-3.7,18.1-11.1,23.9C569.9,723.2,559.6,726.1,546.6,726.1z"/>
		<path class="st0" d="M655.1,726.2c-10.2,0-19.2-2.2-26.9-6.7s-13.7-10.7-18-18.8c-4.3-8-6.4-17.4-6.4-28c0-11.2,2.1-21,6.3-29.3
			s10.1-14.6,17.7-19.2c7.6-4.5,16.4-6.8,26.4-6.8c10.5,0,19.4,2.4,26.8,7.3c7.4,4.9,12.9,11.8,16.5,20.7c3.7,9,5.1,19.6,4.3,31.9
			h-20v-7.2c-0.1-11.9-2.4-20.8-6.8-26.5c-4.4-5.7-11.1-8.6-20.2-8.6c-10,0-17.5,3.1-22.5,9.4c-5,6.3-7.5,15.4-7.5,27.3
			c0,11.3,2.5,20.1,7.5,26.3s12.3,9.3,21.7,9.3c6.2,0,11.6-1.4,16.2-4.2c4.5-2.8,8.1-6.9,10.6-12.1l19.5,6.2
			c-4,9.2-10.1,16.3-18.2,21.4C674.1,723.6,665,726.2,655.1,726.2z M618.4,677.5V662h73.4v15.5H618.4z"/>
		<path class="st0" d="M723.1,723.3V586.1h18l49.7,103.2l49.5-103.2h18.2v137.1h-18.9v-93.9l-44.3,94h-9.1l-44.4-94v94H723.1z"/>
		<path class="st0" d="M914.2,726.2c-7.6,0-14-1.4-19.2-4.2c-5.1-2.8-9-6.6-11.7-11.2c-2.6-4.7-4-9.8-4-15.4c0-5.2,0.9-9.8,2.8-13.7
			c1.8-3.9,4.6-7.3,8.2-10.1c3.6-2.8,8.1-5,13.3-6.7c4.6-1.3,9.8-2.5,15.5-3.5c5.8-1,11.9-2,18.2-2.9c6.4-0.9,12.7-1.8,19-2.7
			l-7.2,4c0.1-8.1-1.6-14.1-5.1-18s-9.6-5.9-18.2-5.9c-5.4,0-10.4,1.3-14.9,3.8s-7.7,6.7-9.4,12.4l-18.6-5.7
			c2.5-8.8,7.4-15.8,14.5-21.1c7.1-5.2,16.7-7.8,28.5-7.8c9.2,0,17.2,1.6,24.1,4.7c6.8,3.1,11.8,8.1,15,14.9c1.7,3.4,2.7,6.9,3,10.7
			c0.4,3.7,0.6,7.8,0.6,12.1v63.4H951v-23.5l3.4,3c-4.3,7.9-9.7,13.7-16.2,17.6C931.9,724.2,923.8,726.2,914.2,726.2z M917.8,709.9
			c5.7,0,10.5-1,14.6-3s7.3-4.6,9.8-7.7c2.5-3.1,4.1-6.4,4.9-9.7c1.1-3,1.7-6.5,1.9-10.3s0.2-6.9,0.2-9.1l6.5,2.4
			c-6.3,1-12,1.8-17.2,2.6s-9.8,1.5-14,2.2s-7.9,1.6-11.1,2.6c-2.7,1-5.2,2.1-7.3,3.4c-2.1,1.3-3.8,3-5.1,4.9
			c-1.2,1.9-1.9,4.2-1.9,7c0,2.7,0.7,5.1,2,7.4s3.4,4,6.1,5.4C910,709.2,913.5,709.9,917.8,709.9z"/>
		<path class="st0" d="M982.3,636.4v-16h70.3v16H982.3z M1052.6,723.3c-6.5,1.3-12.8,1.8-19.1,1.6c-6.2-0.2-11.8-1.4-16.7-3.6
			c-4.9-2.2-8.6-5.7-11.1-10.5c-2.2-4.3-3.4-8.6-3.6-13s-0.2-9.4-0.2-15v-91h20v90c0,4.1,0,7.7,0.1,10.8c0.1,3,0.7,5.6,2,7.7
			c2.3,3.9,5.9,6.2,10.9,6.7s10.8,0.3,17.6-0.6L1052.6,723.3L1052.6,723.3z"/>
		<path class="st0" d="M1119.9,726.2c-10.2,0-19.2-2.2-26.9-6.7c-7.7-4.5-13.7-10.7-18-18.8c-4.3-8-6.4-17.4-6.4-28
			c0-11.2,2.1-21,6.3-29.3c4.2-8.3,10.1-14.6,17.7-19.2c7.6-4.5,16.4-6.8,26.4-6.8c10.5,0,19.4,2.4,26.8,7.3
			c7.4,4.9,12.9,11.8,16.5,20.7c3.7,9,5.1,19.6,4.3,31.9h-19.9v-7.2c-0.1-11.9-2.4-20.8-6.8-26.5s-11.1-8.6-20.2-8.6
			c-10,0-17.5,3.1-22.5,9.4c-5,6.3-7.5,15.4-7.5,27.3c0,11.3,2.5,20.1,7.5,26.3s12.3,9.3,21.7,9.3c6.2,0,11.6-1.4,16.2-4.2
			c4.5-2.8,8.1-6.9,10.6-12.1l19.5,6.2c-4,9.2-10.1,16.3-18.2,21.4C1138.9,723.6,1129.8,726.2,1119.9,726.2z M1083.2,677.5V662h73.5
			v15.5H1083.2z"/>
	</g>
</g>
</svg>
