<?xml version="1.0" encoding="utf-8"?>
<!-- Generator: Adobe Illustrator 26.5.0, SVG Export Plug-In . SVG Version: 6.00 Build 0)  -->
<svg version="1.1" id="Layer_1" xmlns="http://www.w3.org/2000/svg" xmlns:xlink="http://www.w3.org/1999/xlink" x="0px" y="0px"
	 viewBox="0 0 1220.2 772.9" style="enable-background:new 0 0 1220.2 772.9;" xml:space="preserve">
<style type="text/css">
	.st0{fill:#FFFFFF;}
</style>
<path class="st0" d="M1192.2,164.7c-4.1-1.4-8.4-1.9-12.8-1.9h-40.3V41.4c0-5.2-0.8-10.4-2.7-15.3c-6.4-16.2-21.7-26-38-26H978.8
	c-17.7,0.2-104.1,8.8-131.8,22l-6.9,2.9c-21.3,7.5-41.8,16.9-61.4,28.1c-37.7,21.6-71.8,49-100.9,81.3
	c-11.5,12.9-22.2,26.5-32.1,40.7c-9.8,13.8-19.5,28.1-28.1,43.1c0,2-8.5,12.6-7.3,14.6l0,0c-17.6-30.7-37.6-59.9-59.8-87.4
	c-36.5-45.2-83.2-81-136.3-104.5c-13.4-5.7-26.8-12.2-40.7-16.7c-22.8-10.8-115.4-26-131.8-24H122.5c-4.3,0-8.7,0.5-12.8,1.9
	C92.1,8,81.4,23.9,81.4,40.9v122H41.1c-4.3,0-8.7,0.5-12.8,1.9C10.7,170.7,0,186.6,0,203.6v324.8c0,5.2,0.8,10.4,2.7,15.3
	c6.4,16.2,21.7,26,38,26h1138.2c5.2,0,10.4-0.8,15.3-2.7c16.2-6.4,26-21.7,26-38V203.5C1220.5,186.5,1209.8,170.6,1192.2,164.7z
	 M241.9,81.5c86,0.7,168.3,34.7,229.8,94.8c23.6,24,43.5,51.4,59,81.3c-3.7-6.5-21.6-13.4-27.7-17.1l0,0c-9.1-5.2-18.5-10-28.1-14.2
	c-20.1-9.6-40.8-18-61.8-25.2c-74.9-25.5-153.5-38.4-232.6-38.2H163V81.6L241.9,81.5L241.9,81.5z M569.7,488.2h-488v-244h98.8
	c31.6-0.1,63.1,2.1,94.4,6.5c155.4,21.2,275.8,94.4,292.8,177.7l0,0c1.2,6.3,1.9,12.7,2,19.1V488.2z M702.7,236
	c54.1-85.7,143.9-142.4,244.4-154.6h110.6l0,0v81.3c-40.8-0.4-81.6,2.1-122,7.3c-86.8,9.9-170.2,39.2-244,85.8
	C695.4,249,698.7,242.1,702.7,236z M1139.1,488.2h-488v-40.7c0.1-7,0.8-13.9,2-20.7c17.1-83.4,137.5-156.6,292.8-177.7l0,0
	c31.3-3.8,62.8-5.5,94.4-4.9h98.8V488.2L1139.1,488.2z"/>
<g>
	<g>
		<path class="st0" d="M122.9,771.8c-13.7,0-25.4-3-35.1-9s-17-14.4-22.2-25.1c-5.1-10.7-7.7-23.2-7.7-37.4s2.6-26.6,7.7-37.4
			c5.1-10.7,12.5-19.1,22.2-25.1s21.3-9,35.1-9c15.8,0,28.9,4,39.3,12c10.4,8,17.6,18.8,21.7,32.3l-20.2,5.4
			c-2.7-9.6-7.4-17.1-14.2-22.6c-6.8-5.5-15.7-8.2-26.5-8.2c-9.7,0-17.8,2.2-24.3,6.6c-6.5,4.4-11.4,10.5-14.6,18.4
			c-3.3,7.9-4.9,17.1-4.9,27.5c-0.1,10.5,1.5,19.7,4.8,27.5c3.3,7.9,8.2,14,14.7,18.4s14.6,6.6,24.3,6.6c10.9,0,19.7-2.7,26.5-8.2
			c6.8-5.5,11.6-13,14.2-22.5l20.2,5.4c-4.1,13.5-11.3,24.3-21.7,32.3C151.8,767.7,138.7,771.8,122.9,771.8z"/>
		<path class="st0" d="M249.5,771.8c-10.3,0-19.2-2.3-26.8-7c-7.6-4.6-13.4-11-17.5-19.2s-6.1-17.6-6.1-28.3s2.1-20.2,6.3-28.3
			c4.2-8.2,10.1-14.5,17.6-19.1c7.6-4.5,16.4-6.8,26.5-6.8c10.3,0,19.2,2.3,26.8,7c7.6,4.6,13.4,11,17.5,19.2
			c4.1,8.1,6.2,17.5,6.2,28.1c0,10.7-2.1,20.2-6.2,28.3c-4.2,8.2-10,14.5-17.6,19.2C268.7,769.4,259.8,771.8,249.5,771.8z
			 M249.5,753c9.8,0,17.2-3.3,22.1-10c4.9-6.6,7.3-15.2,7.3-25.7c0-10.7-2.5-19.3-7.4-25.8c-4.9-6.4-12.2-9.7-22-9.7
			c-6.7,0-12.2,1.5-16.5,4.5s-7.5,7.2-9.6,12.5s-3.1,11.5-3.1,18.4c0,10.8,2.5,19.4,7.4,25.9S239.9,753,249.5,753z"/>
		<path class="st0" d="M359.8,771.7c-7.1,0-13.1-1.1-17.9-3.4c-4.8-2.3-8.8-5.3-11.8-9s-5.3-7.8-6.9-12.1c-1.6-4.4-2.7-8.7-3.2-12.9
			c-0.6-4.2-0.9-7.9-0.9-11.1V666h20.2v50.6c0,4,0.3,8.1,1,12.3s1.9,8.1,3.8,11.8c1.9,3.6,4.5,6.5,7.9,8.8c3.4,2.2,7.8,3.3,13.3,3.3
			c3.6,0,6.9-0.6,10.1-1.8s6-3.1,8.3-5.7c2.4-2.6,4.3-6,5.6-10.3c1.4-4.3,2-9.4,2-15.5l12.4,4.7c0,9.3-1.7,17.6-5.2,24.7
			c-3.5,7.1-8.5,12.7-15.1,16.7C377,769.7,369.1,771.7,359.8,771.7z M393.8,768.9v-29.7h-2.4V666h20.1v102.9H393.8z"/>
		<path class="st0" d="M438.2,768.9V666h17.7v25l-2.5-3.2c1.3-3.3,2.9-6.3,5-9.1c2-2.8,4.4-5,7.1-6.8c2.6-1.9,5.5-3.4,8.7-4.4
			s6.5-1.7,9.9-1.9c3.4-0.2,6.6,0,9.7,0.5v18.7c-3.4-0.9-7.1-1.1-11.2-0.8c-4.1,0.4-7.9,1.7-11.3,3.9c-3.2,2.1-5.8,4.6-7.7,7.6
			c-1.9,3-3.2,6.3-4,10s-1.2,7.5-1.2,11.6v51.8H438.2z"/>
		<path class="st0" d="M551.2,771.7c-12.5,0-22.7-2.8-30.6-8.3c-7.9-5.5-12.7-13.3-14.5-23.3l20.4-3.1c1.3,5.3,4.2,9.5,8.8,12.6
			s10.3,4.6,17.2,4.6c6.2,0,11.1-1.3,14.6-3.8s5.3-6,5.3-10.5c0-2.6-0.6-4.7-1.9-6.3c-1.2-1.6-3.8-3.2-7.8-4.6
			c-3.9-1.5-9.9-3.3-18-5.4c-8.8-2.3-15.8-4.7-21-7.4c-5.2-2.6-8.9-5.7-11.1-9.2c-2.2-3.5-3.3-7.8-3.3-12.8c0-6.2,1.7-11.7,5-16.3
			c3.3-4.6,8-8.2,14-10.8c6-2.5,13-3.8,21.1-3.8c7.9,0,14.9,1.2,21.1,3.7c6.2,2.5,11.1,6,15,10.5c3.8,4.5,6.1,9.9,6.9,16l-20.4,3.7
			c-0.7-5-3-8.9-7-11.7c-3.9-2.9-9.1-4.4-15.3-4.7c-6-0.3-10.9,0.7-14.7,3c-3.7,2.3-5.6,5.4-5.6,9.3c0,2.3,0.7,4.2,2.1,5.8
			c1.4,1.6,4.2,3.1,8.3,4.6s10.2,3.2,18.3,5.2c8.6,2.2,15.5,4.7,20.6,7.4s8.7,5.9,10.9,9.6c2.2,3.7,3.3,8.2,3.3,13.5
			c0,10.2-3.7,18.1-11.1,23.9C574.5,768.8,564.2,771.7,551.2,771.7z"/>
		<path class="st0" d="M659.7,771.8c-10.2,0-19.2-2.2-26.9-6.7s-13.7-10.7-18-18.8c-4.3-8-6.4-17.4-6.4-28c0-11.2,2.1-21,6.3-29.3
			s10.1-14.6,17.7-19.2c7.6-4.5,16.4-6.8,26.4-6.8c10.5,0,19.4,2.4,26.8,7.3c7.4,4.9,12.9,11.8,16.5,20.7c3.7,9,5.1,19.6,4.3,31.9
			h-20v-7.2c-0.1-11.9-2.4-20.8-6.8-26.5c-4.4-5.7-11.1-8.6-20.2-8.6c-10,0-17.5,3.1-22.5,9.4c-5,6.3-7.5,15.4-7.5,27.3
			c0,11.3,2.5,20.1,7.5,26.3s12.3,9.3,21.7,9.3c6.2,0,11.6-1.4,16.2-4.2c4.5-2.8,8.1-6.9,10.6-12.1l19.5,6.2
			c-4,9.2-10.1,16.3-18.2,21.4C678.7,769.2,669.6,771.8,659.7,771.8z M623,723.1v-15.5h73.4v15.5H623z"/>
		<path class="st0" d="M727.7,768.9V631.7h18l49.7,103.2l49.5-103.2h18.2v137.1h-18.9v-93.9l-44.3,94h-9.1l-44.4-94v94H727.7z"/>
		<path class="st0" d="M918.8,771.8c-7.6,0-14-1.4-19.2-4.2c-5.1-2.8-9-6.6-11.7-11.2c-2.6-4.7-4-9.8-4-15.4c0-5.2,0.9-9.8,2.8-13.7
			c1.8-3.9,4.6-7.3,8.2-10.1c3.6-2.8,8.1-5,13.3-6.7c4.6-1.3,9.8-2.5,15.5-3.5c5.8-1,11.9-2,18.2-2.9c6.4-0.9,12.7-1.8,19-2.7
			l-7.2,4c0.1-8.1-1.6-14.1-5.1-18s-9.6-5.9-18.2-5.9c-5.4,0-10.4,1.3-14.9,3.8s-7.7,6.7-9.4,12.4l-18.6-5.7
			c2.5-8.8,7.4-15.8,14.5-21.1c7.1-5.2,16.7-7.8,28.5-7.8c9.2,0,17.2,1.6,24.1,4.7c6.8,3.1,11.8,8.1,15,14.9c1.7,3.4,2.7,6.9,3,10.7
			c0.4,3.7,0.6,7.8,0.6,12.1v63.4h-17.6v-23.5l3.4,3c-4.3,7.9-9.7,13.7-16.2,17.6C936.5,769.8,928.4,771.8,918.8,771.8z
			 M922.4,755.5c5.7,0,10.5-1,14.6-3s7.3-4.6,9.8-7.7c2.5-3.1,4.1-6.4,4.9-9.7c1.1-3,1.7-6.5,1.9-10.3s0.2-6.9,0.2-9.1l6.5,2.4
			c-6.3,1-12,1.8-17.2,2.6s-9.8,1.5-14,2.2s-7.9,1.6-11.1,2.6c-2.7,1-5.2,2.1-7.3,3.4c-2.1,1.3-3.8,3-5.1,4.9
			c-1.2,1.9-1.9,4.2-1.9,7c0,2.7,0.7,5.1,2,7.4s3.4,4,6.1,5.4C914.6,754.8,918.1,755.5,922.4,755.5z"/>
		<path class="st0" d="M986.9,682v-16h70.3v16H986.9z M1057.2,768.9c-6.5,1.3-12.8,1.8-19.1,1.6c-6.2-0.2-11.8-1.4-16.7-3.6
			c-4.9-2.2-8.6-5.7-11.1-10.5c-2.2-4.3-3.4-8.6-3.6-13s-0.2-9.4-0.2-15v-91h20v90c0,4.1,0,7.7,0.1,10.8c0.1,3,0.7,5.6,2,7.7
			c2.3,3.9,5.9,6.2,10.9,6.7s10.8,0.3,17.6-0.6L1057.2,768.9L1057.2,768.9z"/>
		<path class="st0" d="M1124.5,771.8c-10.2,0-19.2-2.2-26.9-6.7c-7.7-4.5-13.7-10.7-18-18.8c-4.3-8-6.4-17.4-6.4-28
			c0-11.2,2.1-21,6.3-29.3c4.2-8.3,10.1-14.6,17.7-19.2c7.6-4.5,16.4-6.8,26.4-6.8c10.5,0,19.4,2.4,26.8,7.3
			c7.4,4.9,12.9,11.8,16.5,20.7c3.7,9,5.1,19.6,4.3,31.9h-19.9v-7.2c-0.1-11.9-2.4-20.8-6.8-26.5s-11.1-8.6-20.2-8.6
			c-10,0-17.5,3.1-22.5,9.4c-5,6.3-7.5,15.4-7.5,27.3c0,11.3,2.5,20.1,7.5,26.3s12.3,9.3,21.7,9.3c6.2,0,11.6-1.4,16.2-4.2
			c4.5-2.8,8.1-6.9,10.6-12.1l19.5,6.2c-4,9.2-10.1,16.3-18.2,21.4C1143.5,769.2,1134.4,771.8,1124.5,771.8z M1087.8,723.1v-15.5
			h73.5v15.5H1087.8z"/>
	</g>
</g>
</svg>
