<?xml version="1.0" encoding="utf-8"?>
<!-- Generator: Adobe Illustrator 26.5.0, SVG Export Plug-In . SVG Version: 6.00 Build 0)  -->
<svg version="1.1" id="Layer_1" xmlns="http://www.w3.org/2000/svg" xmlns:xlink="http://www.w3.org/1999/xlink" x="0px" y="0px"
	 viewBox="0 0 1897.4 317" style="enable-background:new 0 0 1897.4 317;" xml:space="preserve">
<style type="text/css">
	.st0{fill:#FFFFFF;}
</style>
<path class="st0" d="M662.4,91.5c-2.3-0.8-4.7-1-7.1-1h-22.4V23c0-2.9-0.4-5.8-1.5-8.5c-3.6-9-12.1-14.4-21.1-14.4h-66.5
	C534,0.2,485.9,5,470.6,12.3l-3.8,1.6c-11.8,4.2-23.2,9.4-34.1,15.6c-21,12-39.9,27.2-56.1,45.2c-6.4,7.2-12.4,14.7-17.9,22.6
	c-5.4,7.7-10.8,15.6-15.6,24c0,1.1-4.7,7-4.1,8.1l0,0c-9.8-17-20.9-33.3-33.2-48.6c-20.3-25.1-46.2-45-75.7-58.1
	c-7.5-3.2-14.9-6.8-22.6-9.3c-12.7-6-64.2-14.4-73.2-13.3H68c-2.4,0-4.8,0.3-7.1,1c-9.8,3.3-15.7,12.1-15.7,21.6v67.8H22.8
	c-2.4,0-4.8,0.3-7.1,1C5.9,94.8,0,103.6,0,113.1v180.5c0,2.9,0.4,5.8,1.5,8.5c3.6,9,12.1,14.4,21.1,14.4h632.6
	c2.9,0,5.8-0.4,8.5-1.5c9-3.6,14.4-12.1,14.4-21.1V113.1C678.1,103.6,672.2,94.8,662.4,91.5z M134.3,45.3
	C182.1,45.7,227.8,64.6,262,98c13.1,13.3,24.2,28.6,32.8,45.2c-2-3.6-12-7.5-15.4-9.5l0,0c-5.1-2.9-10.3-5.5-15.6-7.9
	c-11.2-5.3-22.6-10-34.4-14c-41.6-14.2-85.3-21.3-129.3-21.2h-9.7V45.4h43.9V45.3z M316.5,271.3H45.2V135.7h54.9
	c17.5,0,35.1,1.2,52.4,3.6c86.4,11.8,153.3,52.4,162.8,98.8l0,0c0.7,3.5,1,7.1,1.1,10.6L316.5,271.3L316.5,271.3z M390.4,131.2
	c30.1-47.6,80-79.2,135.8-85.9h61.5l0,0v45.2c-22.7-0.2-45.3,1.1-67.8,4.1c-48.2,5.5-94.6,21.8-135.6,47.7
	C386.3,138.4,388.1,134.5,390.4,131.2z M632.9,271.3H361.7v-22.6c0-3.9,0.4-7.7,1.1-11.5c9.5-46.3,76.4-87,162.8-98.8l0,0
	c17.4-2.1,34.9-3,52.4-2.7h54.9L632.9,271.3L632.9,271.3z"/>
<g>
	<g>
		<path class="st0" d="M832.3,230.4c-13.9,0-25.7-3-35.4-9.1s-17.2-14.5-22.4-25.3s-7.7-23.4-7.7-37.7s2.6-26.9,7.7-37.7
			c5.2-10.8,12.6-19.3,22.4-25.3c9.7-6.1,21.5-9.1,35.4-9.1c16,0,29.2,4,39.7,12.1s17.8,19,21.9,32.6l-20.4,5.5
			c-2.7-9.7-7.5-17.3-14.4-22.8s-15.8-8.3-26.8-8.3c-9.8,0-18,2.2-24.5,6.6s-11.5,10.6-14.8,18.6s-5,17.2-5,27.8
			c-0.1,10.6,1.6,19.8,4.9,27.8c3.3,8,8.2,14.1,14.8,18.6c6.6,4.4,14.8,6.6,24.6,6.6c11,0,19.9-2.8,26.8-8.3
			c6.9-5.5,11.7-13.1,14.4-22.8l20.4,5.5c-4.1,13.7-11.4,24.5-21.9,32.6C861.5,226.3,848.3,230.4,832.3,230.4z"/>
		<path class="st0" d="M960.2,230.4c-10.4,0-19.4-2.3-27-7s-13.5-11.1-17.7-19.4c-4.1-8.2-6.2-17.7-6.2-28.5s2.1-20.4,6.3-28.6
			c4.2-8.2,10.2-14.7,17.8-19.2c7.6-4.6,16.5-6.9,26.7-6.9c10.4,0,19.4,2.3,27,7c7.6,4.7,13.5,11.1,17.7,19.3s6.3,17.7,6.3,28.4
			c0,10.8-2.1,20.4-6.3,28.6c-4.2,8.2-10.1,14.7-17.7,19.3C979.5,228.1,970.5,230.4,960.2,230.4z M960.2,211.4
			c9.9,0,17.4-3.4,22.3-10.1c4.9-6.7,7.4-15.3,7.4-25.9c0-10.8-2.5-19.5-7.5-26s-12.4-9.8-22.2-9.8c-6.7,0-12.3,1.5-16.6,4.6
			c-4.4,3-7.6,7.2-9.7,12.6c-2.1,5.4-3.2,11.6-3.2,18.6c0,10.9,2.5,19.6,7.5,26.2C943.1,208.2,950.5,211.4,960.2,211.4z"/>
		<path class="st0" d="M1071.5,230.3c-7.2,0-13.2-1.2-18.1-3.5s-8.8-5.3-11.9-9.1c-3-3.8-5.4-7.8-7-12.3c-1.6-4.4-2.7-8.8-3.3-13
			s-0.9-8-0.9-11.2v-57.7h20.4v51.1c0,4,0.3,8.2,1,12.5s2,8.2,3.8,11.9c1.9,3.7,4.6,6.6,8,8.9c3.4,2.2,7.9,3.4,13.4,3.4
			c3.6,0,7-0.6,10.2-1.8s6-3.1,8.4-5.7c2.4-2.6,4.3-6.1,5.7-10.4c1.4-4.3,2.1-9.5,2.1-15.7l12.5,4.7c0,9.4-1.8,17.7-5.3,25
			c-3.5,7.2-8.6,12.8-15.2,16.9C1088.8,228.3,1080.8,230.3,1071.5,230.3z M1105.8,227.5v-30h-2.4v-73.9h20.3v103.9H1105.8z"/>
		<path class="st0" d="M1150.6,227.5V123.6h17.9v25.2l-2.5-3.3c1.3-3.3,2.9-6.4,5-9.2s4.4-5.1,7.1-6.9c2.6-1.9,5.6-3.4,8.8-4.5
			c3.2-1.1,6.6-1.7,10-1.9c3.4-0.2,6.7,0,9.8,0.5v18.9c-3.4-0.9-7.2-1.2-11.3-0.8c-4.1,0.4-7.9,1.7-11.4,3.9
			c-3.3,2.1-5.9,4.7-7.7,7.7c-1.9,3-3.3,6.4-4.1,10.1c-0.8,3.7-1.3,7.6-1.3,11.7v52.4L1150.6,227.5L1150.6,227.5z"/>
		<path class="st0" d="M1264.7,230.3c-12.6,0-22.9-2.8-30.9-8.4c-8-5.6-12.8-13.4-14.6-23.6l20.6-3.2c1.3,5.4,4.2,9.6,8.9,12.7
			c4.6,3.1,10.4,4.7,17.4,4.7c6.3,0,11.2-1.3,14.8-3.8c3.6-2.6,5.3-6.1,5.3-10.6c0-2.6-0.6-4.8-1.9-6.4c-1.3-1.6-3.9-3.2-7.8-4.7
			c-4-1.5-10-3.3-18.2-5.5c-8.9-2.3-16-4.8-21.2-7.5s-8.9-5.8-11.2-9.3c-2.2-3.6-3.3-7.9-3.3-12.9c0-6.3,1.7-11.8,5-16.4
			c3.3-4.7,8-8.3,14.1-10.9s13.2-3.8,21.3-3.8c8,0,15,1.3,21.3,3.8c6.2,2.5,11.3,6,15.1,10.6c3.8,4.6,6.2,10,6.9,16.1l-20.6,3.8
			c-0.7-5-3-8.9-7-11.8c-4-2.9-9.1-4.5-15.5-4.7c-6.1-0.3-11,0.8-14.8,3c-3.8,2.3-5.7,5.4-5.7,9.4c0,2.3,0.7,4.3,2.2,5.9
			c1.4,1.6,4.2,3.1,8.4,4.6c4.2,1.5,10.3,3.2,18.5,5.3c8.7,2.2,15.6,4.7,20.8,7.5c5.1,2.7,8.8,6,11,9.7c2.2,3.8,3.3,8.3,3.3,13.6
			c0,10.3-3.7,18.3-11.2,24.1C1288.2,227.4,1277.9,230.3,1264.7,230.3z"/>
		<path class="st0" d="M1374.2,230.4c-10.3,0-19.4-2.3-27.2-6.8c-7.8-4.5-13.9-10.8-18.2-19c-4.3-8.1-6.5-17.5-6.5-28.2
			c0-11.4,2.1-21.2,6.4-29.5s10.2-14.8,17.8-19.3c7.6-4.6,16.5-6.8,26.6-6.8c10.6,0,19.6,2.5,27,7.4c7.4,4.9,13,11.9,16.7,20.9
			s5.1,19.8,4.4,32.2h-20.1V174c-0.1-12.1-2.4-21-6.9-26.7c-4.5-5.8-11.2-8.7-20.3-8.7c-10.1,0-17.6,3.2-22.7,9.5
			s-7.6,15.5-7.6,27.5c0,11.4,2.5,20.2,7.6,26.5s12.4,9.4,21.9,9.4c6.3,0,11.7-1.4,16.3-4.3c4.6-2.9,8.2-6.9,10.7-12.3l19.7,6.3
			c-4,9.3-10.2,16.5-18.4,21.6C1393.4,227.8,1384.3,230.4,1374.2,230.4z M1337.2,181.2v-15.7h74.2v15.7H1337.2z"/>
		<path class="st0" d="M1442.9,227.5V89h18.2l50.2,104.2L1561.2,89h18.4v138.4h-19v-94.8l-44.7,94.8h-9.1l-44.8-94.8v94.8
			L1442.9,227.5L1442.9,227.5z"/>
		<path class="st0" d="M1635.8,230.4c-7.7,0-14.1-1.4-19.3-4.3c-5.2-2.9-9.1-6.6-11.8-11.4c-2.7-4.7-4-9.9-4-15.5
			c0-5.3,0.9-9.9,2.8-13.9s4.6-7.4,8.3-10.1s8.1-5,13.5-6.8c4.6-1.3,9.8-2.5,15.7-3.6c5.8-1,12-2,18.4-2.9s12.8-1.8,19.2-2.7l-7.3,4
			c0.1-8.1-1.6-14.2-5.1-18.1c-3.6-3.9-9.7-5.9-18.3-5.9c-5.5,0-10.5,1.3-15,3.8c-4.6,2.5-7.7,6.7-9.5,12.6l-18.8-5.8
			c2.6-8.9,7.5-16,14.7-21.3c7.2-5.3,16.8-7.9,28.8-7.9c9.3,0,17.4,1.6,24.3,4.8c6.9,3.2,11.9,8.2,15.2,15.1c1.7,3.4,2.7,7,3.1,10.8
			s0.6,7.9,0.6,12.2v64h-17.8v-23.8l3.5,3.1c-4.3,8-9.8,13.9-16.4,17.7C1653.7,228.4,1645.5,230.4,1635.8,230.4z M1639.4,213.9
			c5.7,0,10.6-1,14.7-3s7.4-4.6,9.9-7.7c2.5-3.1,4.1-6.4,4.9-9.8c1.1-3.1,1.7-6.5,1.9-10.4c0.2-3.8,0.2-6.9,0.2-9.2l6.5,2.4
			c-6.3,1-12.1,1.8-17.3,2.6s-9.9,1.5-14.1,2.3c-4.2,0.7-7.9,1.6-11.2,2.6c-2.8,1-5.2,2.1-7.4,3.5c-2.1,1.3-3.8,3-5.1,4.9
			c-1.3,1.9-1.9,4.3-1.9,7s0.7,5.2,2,7.5s3.4,4.1,6.2,5.4C1631.6,213.3,1635.1,213.9,1639.4,213.9z"/>
		<path class="st0" d="M1704.5,139.8v-16.2h71v16.2H1704.5z M1775.5,227.5c-6.5,1.3-13,1.8-19.2,1.6c-6.3-0.2-11.9-1.4-16.8-3.7
			c-4.9-2.2-8.7-5.8-11.2-10.6c-2.2-4.3-3.4-8.7-3.6-13.1c-0.2-4.5-0.2-9.5-0.2-15.2V94.6h20.2v90.9c0,4.2,0,7.8,0.1,10.9
			c0.1,3.1,0.8,5.7,2,7.8c2.3,4,6,6.2,11,6.8c5,0.5,10.9,0.3,17.7-0.6V227.5z"/>
		<path class="st0" d="M1843.4,230.4c-10.3,0-19.4-2.3-27.2-6.8c-7.8-4.5-13.9-10.8-18.2-19c-4.3-8.1-6.5-17.5-6.5-28.2
			c0-11.4,2.1-21.2,6.4-29.5s10.2-14.8,17.8-19.3c7.6-4.6,16.5-6.8,26.6-6.8c10.6,0,19.6,2.5,27,7.4c7.4,4.9,13,11.9,16.7,20.9
			s5.1,19.8,4.4,32.2h-20V174c-0.1-12.1-2.4-21-6.9-26.7c-4.5-5.8-11.2-8.7-20.3-8.7c-10.1,0-17.6,3.2-22.7,9.5s-7.6,15.5-7.6,27.5
			c0,11.4,2.5,20.2,7.6,26.5s12.4,9.4,21.9,9.4c6.3,0,11.7-1.4,16.3-4.3c4.6-2.9,8.2-6.9,10.7-12.3l19.7,6.3
			c-4,9.3-10.2,16.5-18.4,21.6C1862.6,227.8,1853.5,230.4,1843.4,230.4z M1806.4,181.2v-15.7h74.2v15.7H1806.4z"/>
	</g>
</g>
</svg>
